<svg xmlns="http://www.w3.org/2000/svg" viewBox="0 0 753.67 350">
  <path
  d="M597,350c-95.42,0-172.5-78.33-172.5-175S501.58,0,597,0C683.25,0,744.5,63.75,753.67,147.5h-108.33c-4.17-32.08-25.83-45-43.33-45-22.5,0-45,20.83-45,72.5s22.5,72.5,45,72.5c17.08,0,38.75-12.92,42.92-43.75h108.75c-9.17,83.33-70.83,146.25-156.67,146.25Zf"
  fill="currentColor"
  />
  <path d="M66.94,350l-2.63-63.44h-24.06l-3.94,63.44H0L28.44,0h51.63l28.88,350h-42Z" fill="currentColor"/>
  <path d="M296.56,350l-3.94-50.31h-38.94l-6.13,50.31h-71.31L229.19,0h96.25l54.25,350h-83.13Z" fill="currentColor"/>
</svg>