<svg xmlns="http://www.w3.org/2000/svg" viewBox="0 0 500 500">
  <style>
    path { fill: black; }
    @media (prefers-color-scheme: dark) {
      path { fill: white; }
    }
  </style>
  <path d="M239.19,255.9c0-71.1,58.37-128.54,130.41-128.54s130.41,57.44,130.41,128.54c0,64.27-47.5,109.91-109.91,116.74v-80.73c23.91-3.1,33.53-19.25,33.53-32.29,0-16.77-15.52-33.53-54.03-33.53s-54.03,16.77-54.03,33.53c0,12.73,9.63,28.88,32.6,31.98v81.04c-62.1-6.83-108.98-52.78-108.98-116.74Z"/>
  <path d="M31.3,119.59l1.96,47.27h17.93l2.93-47.27h27.06l-21.19,260.81H21.52L0,119.59h31.3Z"/>
  <path d="M174.74,380.41l-2.93-37.49h-29.02l-4.56,37.49h-53.14L124.53,119.59h71.72l40.43,260.81h-61.94Z"/>
</svg>
